<svg width="81" height="81" viewBox="0 0 81 81" fill="none" xmlns="http://www.w3.org/2000/svg">
<path d="M42.1116 37.4381C39.5822 37.9199 37.896 40.3288 36.812 42.6775C35.7882 45.0262 35.0656 47.676 33.2589 49.5429C30.85 52.012 27.1162 52.554 23.6835 52.6744C20.2508 52.7949 16.6375 52.7346 13.5662 54.3004C10.1937 56.1071 8.02569 59.7807 4.59302 61.4669C6.21902 61.4067 7.60414 60.3227 8.98925 59.3591C12.181 57.0707 15.8546 55.5049 19.7088 54.722C22.5393 54.18 25.43 54.0595 28.2604 53.4573C31.0909 52.8551 33.9213 51.7711 35.8484 49.6031C37.896 47.2544 38.6187 44.0626 40.3049 41.473C41.3287 39.847 42.7138 38.4619 44.2796 37.4381C46.0863 36.2939 48.4349 35.5713 50.3018 36.5348C52.2289 37.4984 53.0118 39.9073 52.8914 42.015C52.6505 46.7726 48.9769 50.8075 44.7011 52.9755C40.4253 55.1435 35.6076 55.8662 30.9704 56.9502C26.3333 58.0342 21.5155 59.5398 18.1431 62.9122C16.3966 64.5985 15.1319 66.7665 13.3855 68.3925C11.2777 70.3196 8.5677 71.5843 5.73724 71.8854C9.6517 72.8489 13.6264 70.6207 16.6375 68.0311C19.6486 65.3814 22.2984 62.1896 25.9117 60.3829C29.224 58.7569 32.9578 58.4558 36.6313 57.8535C40.9071 57.1911 45.2431 56.1071 48.8565 53.638C52.4096 51.1689 55.1196 47.0737 54.9992 42.7377C54.939 41.5935 54.7583 40.4493 54.8185 39.3653C54.8787 38.221 55.3605 37.0166 56.3241 36.4746C57.5887 35.7519 59.2147 36.2337 60.4192 37.137C63.7916 39.7868 64.2734 44.9057 62.6474 48.8804C61.2623 52.3131 58.6125 55.2038 55.5412 57.2513C52.4698 59.2989 48.9167 60.6238 45.3636 61.6476C39.4618 63.2736 33.0782 63.936 27.2366 62.0691C24.6471 61.226 22.178 59.9011 19.5282 59.4795C16.9988 59.058 14.349 59.5398 12.2413 60.9851C10.1335 62.4304 8.68814 64.8996 8.74836 67.4289C10.6153 63.0929 16.0955 60.6238 20.6122 62.1896C22.6597 62.9122 24.4062 64.2371 26.2731 65.2007C29.8262 67.0073 33.9816 67.5494 37.9562 67.188C41.9309 66.8267 45.8454 65.6825 49.5792 64.2973C53.9754 62.7316 58.3114 60.7442 61.8043 57.6729C65.2972 54.5413 67.7663 50.0849 67.5857 45.3875C67.405 41.9548 65.8392 38.7028 65.1768 35.3304C65.1165 34.9088 65.0563 34.427 65.3574 34.1259C65.5381 33.9452 65.8392 33.885 66.0801 33.885C68.6094 33.7044 70.4763 36.1735 71.3797 38.5221C72.5239 41.3526 73.0659 44.4239 72.4034 47.3748C71.741 50.3257 69.7537 53.0358 66.9232 54.1198C63.6712 55.3242 59.9976 54.2402 56.5047 54.4811C53.7947 54.6618 51.1449 55.7458 49.0372 57.5524C47.2305 59.1182 45.7249 61.4067 46.026 63.7553C46.2067 65.2007 46.9896 66.5256 48.0736 67.5494C51.3858 70.6207 56.8058 70.1389 60.7805 68.0311C58.6727 68.6334 56.3843 68.9345 54.2163 68.4527C52.0483 67.9709 50.0007 66.5858 49.278 64.478C48.4952 62.4304 49.3383 59.7204 51.3858 58.8171C52.2892 58.3955 53.3732 58.3956 54.3367 58.3956C58.3114 58.516 62.4065 59.1182 66.2608 58.0944C71.6206 56.6491 75.8963 51.7109 76.5588 46.1704C77.2212 40.6299 74.1499 34.8486 69.2719 32.1988C65.1165 29.9706 60.2385 29.9706 55.5412 30.3921C52.4698 30.633 49.3383 31.0546 46.5078 32.3192C43.6774 33.5839 41.148 35.7519 40.064 38.6426C40.0038 38.8233 39.8833 39.0641 39.7027 39.1244C39.522 39.1244 39.4016 38.7028 39.6425 38.763L42.1116 37.4381Z" fill="#6F6FB5"/>
<path d="M36.5711 20.636C40.3049 15.9989 45.7249 12.6866 51.5664 10.88C56.5649 9.37439 62.2258 8.95283 66.6221 11.3617C70.2956 13.3491 72.5841 16.9624 74.2101 20.5758C76.077 24.6709 77.2814 29.2478 76.2576 33.644C76.077 34.3065 75.8963 35.0291 75.4145 35.5711C74.451 36.5949 72.7647 36.7154 71.3796 36.4142C69.9945 36.1131 68.6696 35.5109 67.2243 35.5109C63.1292 35.4507 59.8771 39.9674 55.8422 39.6663C54.0356 39.5458 52.53 38.4016 50.7836 37.9198C48.194 37.1369 45.2431 37.7994 42.6535 38.7629C40.4855 39.606 38.3175 40.69 36.0291 40.69C31.0306 40.69 31.4522 35.9325 31.693 32.4396C32.0544 28.224 33.8008 24.0687 36.5711 20.636Z" fill="#98CCD8"/>
<path d="M46.3875 13.1682C44.5808 14.0113 42.8946 15.1555 41.8708 16.7815C41.7503 17.0224 41.5697 17.3235 41.6901 17.5042C41.8708 17.8655 42.4128 17.8053 42.8343 17.6246C44.099 17.0224 45.0023 15.818 46.0863 14.9146C46.9295 14.192 47.9532 13.7102 48.977 13.2284C49.2781 13.0477 49.7599 12.9273 49.9406 13.2284C50.061 13.4091 49.9406 13.65 49.8804 13.8306C48.7964 15.9384 46.9295 17.9258 46.9897 20.2744C46.9897 20.5755 47.0499 20.9369 47.351 21.1778C47.8328 21.5391 48.5555 21.1778 48.977 20.7562C51.0246 18.7087 50.6633 15.3964 52.0484 12.9273C52.229 12.6262 52.5904 12.2649 52.8915 12.5057C53.0119 12.566 53.0721 12.6864 53.0721 12.8069C53.2528 13.4091 53.2528 14.0715 53.3733 14.734C53.4937 16.1793 53.855 17.5644 54.4573 18.8291C54.6981 19.4313 55.0595 20.0335 55.6617 20.3347C56.2639 20.6358 57.1071 20.5755 57.5286 20.0335C57.7093 19.7927 57.7695 19.4915 57.7695 19.2507C58.0706 17.1429 57.2275 14.9749 55.6617 13.5897C55.1799 13.1682 54.5777 12.566 54.8788 11.9637C55.0595 11.6626 55.481 11.482 55.9026 11.5422C56.2639 11.6024 56.6253 11.7831 56.9866 11.9035C58.1308 12.5057 59.3353 13.108 60.4795 13.7704C61.3828 14.2522 62.2862 14.734 63.2497 15.0351C63.4906 15.0953 63.852 15.2158 64.0928 15.0351C64.5144 14.7942 64.4542 14.192 64.2133 13.7704C63.31 12.2649 61.3226 11.7831 59.5159 11.3013C59.3353 11.2411 59.1546 11.1809 59.0944 11.0604C58.9739 10.8195 59.0944 10.5184 59.3955 10.398C59.6364 10.2775 59.9375 10.2775 60.2386 10.2775C61.2624 10.3377 62.2862 10.3377 63.3702 10.398C63.4906 10.0366 62.9486 9.91618 62.5873 9.91618C60.9011 9.91618 59.2148 9.85596 57.4684 9.85596C55.481 9.85596 53.4937 9.91618 51.687 10.8797C49.8804 11.6626 48.1339 12.3251 46.3875 13.1682Z" fill="#6F6FB5"/>
<path d="M45.764 28.1418C46.806 27.797 47.2779 26.3912 46.8181 25.0019C46.3583 23.6127 45.1409 22.7661 44.0989 23.1109C43.057 23.4558 42.5851 24.8615 43.0449 26.2508C43.5047 27.64 44.7221 28.4867 45.764 28.1418Z" fill="white"/>
<path d="M45.3301 28.1361C45.9931 27.9166 46.3019 27.0476 46.0197 26.1951C45.7376 25.3427 44.9713 24.8295 44.3083 25.0489C43.6452 25.2684 43.3365 26.1374 43.6186 26.9899C43.9008 27.8423 44.667 28.3555 45.3301 28.1361Z" fill="#6B3736"/>
<path d="M54.8038 27.1286C55.8458 26.7838 56.3177 25.378 55.8579 23.9888C55.398 22.5995 54.1806 21.7529 53.1387 22.0977C52.0968 22.4426 51.6249 23.8484 52.0847 25.2376C52.5445 26.6269 53.7619 27.4735 54.8038 27.1286Z" fill="white"/>
<path d="M54.3695 27.1229C55.0326 26.9034 55.3414 26.0344 55.0592 25.182C54.7771 24.3295 54.0108 23.8163 53.3478 24.0357C52.6847 24.2552 52.3759 25.1242 52.6581 25.9767C52.9403 26.8292 53.7065 27.3423 54.3695 27.1229Z" fill="#6B3736"/>
<path d="M43.2974 29.9221C43.3268 29.5241 42.5172 29.1397 41.4889 29.0636C40.4606 28.9875 39.6031 29.2484 39.5737 29.6465C39.5442 30.0445 40.3539 30.4289 41.3822 30.505C42.4105 30.5811 43.2679 30.3202 43.2974 29.9221Z" fill="#F4D7D7"/>
<path d="M59.8773 29.5183C59.9067 29.1203 59.097 28.7359 58.0688 28.6598C57.0405 28.5837 56.183 28.8446 56.1536 29.2427C56.1241 29.6407 56.9338 30.0251 57.9621 30.1012C58.9903 30.1773 59.8478 29.9164 59.8773 29.5183Z" fill="#F4D7D7"/>
<path d="M48.4951 30.2713L51.0245 30.1509C51.0245 30.1509 50.2416 31.6564 49.7598 31.7769C49.3382 31.8973 48.5553 30.5724 48.4951 30.2713Z" fill="#6B3736"/>
</svg>
