<svg width="80" height="81" viewBox="0 0 80 81" fill="none" xmlns="http://www.w3.org/2000/svg">
<path d="M46.0275 42.2365C45.7118 43.3417 45.6065 44.4995 45.7644 45.6573C46.0802 48.0256 47.5538 50.0255 48.6064 52.1833C48.9748 52.9201 49.2905 53.6569 49.3432 54.4464C49.4484 55.2358 49.2379 56.0779 48.7116 56.7094C48.5537 56.8673 48.3959 57.0252 48.3432 57.2357C48.2906 57.4462 48.5011 57.7094 48.7116 57.6041C48.5011 57.6567 48.6064 58.0251 48.8169 58.0778C49.0274 58.1304 49.2379 57.9725 49.3432 57.762C49.3432 57.8672 49.2905 57.9725 49.2905 58.0778C49.3432 58.2356 49.6063 58.3409 49.7642 58.2883C49.9747 58.2356 50.08 58.1304 50.2379 57.9725C53.7114 54.7621 56.5533 50.8676 58.5532 46.552C59.29 44.9732 59.9742 43.2364 59.7637 41.4996C59.5532 39.2366 57.7112 37.1841 55.5008 36.7104C51.7115 35.9736 47.1854 38.4472 46.0275 42.2365Z" fill="#929FA5"/>
<path d="M25.45 49.131C25.3973 49.9731 25.6079 50.9204 26.2394 51.4993C26.3447 51.552 26.4499 51.6572 26.5552 51.6572C26.6604 51.6572 26.7657 51.4993 26.7131 51.3941C26.8183 51.6572 27.292 51.4993 27.2394 51.2362C27.3446 51.3941 27.5551 51.2888 27.6078 51.1309C27.6604 50.973 27.6078 50.8152 27.5551 50.6573C27.3972 50.131 27.3972 49.5521 27.6078 49.0258C27.9762 48.289 28.7656 47.8679 29.555 47.71C30.3445 47.5522 31.1865 47.5522 31.976 47.3416C32.7654 47.1311 33.5548 46.6575 33.7653 45.868C34.0811 44.8155 33.2391 43.7103 32.2391 43.3945C28.9761 42.3419 25.6079 46.1312 25.45 49.131Z" fill="#929FA5"/>
<path d="M21.6606 16.4484C23.0816 14.7117 25.5025 13.7643 27.7129 14.2906C29.7654 14.7643 31.3969 16.4484 31.9759 18.501C32.5548 20.5009 32.1338 22.7639 30.9759 24.5006C29.8181 26.2374 27.9234 27.4479 25.9235 27.9742C25.6078 28.0794 25.2394 28.132 24.9236 28.0794C24.6604 28.0268 24.3973 27.8689 24.1342 27.711C20.3449 25.1322 18.4502 20.2903 21.6606 16.4484Z" fill="#929FA5"/>
<path d="M18.3448 21.922C14.5556 23.1325 10.661 24.4482 6.71386 23.8693C6.50334 25.185 6.977 26.5534 7.55592 27.7638C10.0295 32.8688 14.924 36.4476 20.1869 38.5528C21.5552 39.0791 22.9762 39.5527 24.4498 39.658C27.5023 39.8685 30.66 38.5528 32.6599 36.2371C34.6598 33.9214 35.6071 30.7111 35.1861 27.6586C35.0282 26.6586 34.7651 25.6587 34.2914 24.8166C32.9231 22.5009 31.0284 20.8168 28.3443 20.4484C24.9761 19.9748 21.5552 20.9221 18.3448 21.922Z" fill="#ACBCC6"/>
<path d="M31.5022 47.1309C33.3442 48.394 35.4493 49.1834 37.5545 49.8149C41.3964 51.0254 45.4488 51.8675 49.4486 51.5517C52.8169 51.3412 56.1851 50.2886 58.9745 48.394C60.8165 47.1835 62.448 45.552 63.3953 43.6047C64.3426 41.6048 64.6058 39.2365 63.7111 37.184C63.1321 35.8683 62.1322 34.7631 60.9744 33.8684C58.6587 32.1316 55.7641 31.2896 52.9221 30.9738C50.0275 30.658 47.133 30.8159 44.291 30.9212C40.5017 31.0264 37.2387 31.3948 33.0284 29.9212C30.6601 29.0792 27.7129 30.658 25.6604 32.1316C24.292 33.1316 23.5552 34.6578 22.9763 36.1841C22.2395 38.184 22.6079 38.4471 24.0815 39.8155C26.6077 42.2364 28.6076 45.1836 31.5022 47.1309Z" fill="#ACBCC6"/>
<path d="M33.397 17.5536C35.66 17.2905 38.0284 18.3431 39.2388 20.2377C40.344 22.0271 40.344 24.3954 39.3967 26.2374C38.3968 28.0794 36.5547 29.3951 34.5022 29.8162C32.4497 30.2372 30.2919 29.8162 28.4499 28.7636C28.1341 28.6057 27.871 28.3952 27.6605 28.132C27.5026 27.9215 27.4499 27.6058 27.3447 27.3426C26.3974 22.9218 28.4499 18.1325 33.397 17.5536Z" fill="#ACBCC6"/>
<path d="M33.3967 20.606C34.0283 20.606 34.7125 20.7112 35.2914 21.027C36.2387 21.6059 36.765 22.7637 36.6597 23.9216C36.5545 25.0268 35.8703 26.0267 34.9756 26.7109C33.7651 27.6582 32.081 27.974 30.6074 27.4477C30.3969 27.3425 30.1337 27.2372 30.0285 27.0793C29.6075 26.5004 30.1864 25.7636 30.239 25.0794C30.239 24.6058 30.0285 24.1847 29.8706 23.7637C29.1338 21.7638 31.8705 20.606 33.3967 20.606Z" fill="#F7CDCB"/>
<path d="M46.607 66.9196C46.0281 66.288 45.1334 65.7091 45.2913 64.8671C45.5018 63.9197 46.5017 63.4461 47.4491 63.2356C51.0278 62.2882 54.8171 62.2356 58.5011 61.762C60.501 61.4988 62.5009 61.1304 64.4482 60.5515C65.9218 60.1305 67.3954 59.6568 68.7112 58.8674C71.8163 57.0254 73.8162 53.6045 74.1319 50.0257C74.4477 46.447 73.0794 42.8156 70.6584 40.1841C68.2375 37.5527 64.8166 35.8685 61.2905 35.3949C61.501 35.5001 61.6589 35.7633 61.6062 36.0264L61.3431 35.0791C62.4483 36.2369 60.8168 37.5 62.4483 37.5527C66.185 37.7105 69.7637 40.342 71.0795 42.4998C72.7636 45.2365 73.4478 48.9731 72.3425 51.973C71.2373 54.9728 69.3953 57.078 65.5534 58.6569C59.8169 60.9725 53.4488 60.3936 47.3438 61.4988C46.2912 61.7093 45.186 61.9725 44.344 62.6567C43.5019 63.3408 42.9756 64.4987 43.2914 65.4986C43.6072 66.5512 44.7124 67.1301 45.7649 67.3406C45.8702 67.3933 47.4491 67.8143 46.607 66.9196Z" fill="#ACBCC6"/>
<path d="M51.3433 43.8154C51.4485 44.9732 51.817 46.0785 52.3959 47.0784C53.6063 49.1309 55.7641 50.4467 57.5535 51.9729C58.1851 52.4992 58.764 53.0781 59.1324 53.7623C59.5008 54.4464 59.6587 55.3412 59.3955 56.078C59.3429 56.2885 59.2376 56.499 59.2376 56.7095C59.2903 56.92 59.606 57.0779 59.7113 56.92C59.5534 57.0779 59.7639 57.341 59.9744 57.2884C60.1849 57.2358 60.2902 57.0253 60.3428 56.8148C60.3955 56.92 60.3955 57.0253 60.4481 57.1305C60.606 57.2358 60.8165 57.2358 60.9744 57.1305C61.1323 57.0253 61.1849 56.8148 61.2902 56.6569C63.2374 52.3413 64.3426 47.6573 64.5532 42.9207C64.6058 41.184 64.5532 39.342 63.7111 37.7631C62.6059 35.7632 60.1849 34.5527 57.9219 35.0264C54.1326 35.8684 50.9223 39.9209 51.3433 43.8154Z" fill="#ACBCC6"/>
<path d="M33.8177 56.1305C33.7124 56.4463 33.6071 56.7621 33.7124 57.0252C33.8177 57.2884 34.2387 57.4462 34.4492 57.2357C34.4492 57.341 34.4492 57.4989 34.5018 57.6041C34.765 57.6041 35.0808 57.3936 35.0808 57.0778C35.0808 57.1831 35.0808 57.341 35.0808 57.4462C35.4492 57.6567 35.7649 57.1831 35.9228 56.7621C36.6596 54.8148 37.2912 52.8149 37.7648 50.7624C38.028 49.7624 38.2385 48.8151 38.2385 47.8151C38.2911 45.4995 37.028 43.0785 34.8702 42.1312C33.8703 41.7102 32.6072 41.6576 31.7651 42.2891C29.8705 43.7101 31.6599 45.4995 32.5019 46.7626C33.6071 48.4993 34.2387 50.5519 34.2913 52.6044C34.3439 53.8675 34.1861 55.0253 33.8177 56.1305Z" fill="#ACBCC6"/>
<path d="M6.76645 26.2376C6.60857 25.6587 6.50331 25.0271 6.45068 24.3956C6.45068 24.185 6.45068 23.9219 6.55594 23.764C6.6612 23.5535 6.92434 23.4482 7.18749 23.4482C7.45063 23.4482 7.66115 23.5009 7.87166 23.6061C8.02955 23.6588 8.24007 23.7114 8.39795 23.764C8.71373 23.8693 9.08212 23.9745 9.24001 24.2903C9.3979 24.6061 9.34527 25.0271 9.0295 25.2376C8.81898 25.3955 8.55584 25.3955 8.2927 25.5008C8.02955 25.5534 7.7664 25.7113 7.66114 25.9218C7.60851 26.0797 7.60851 26.2376 7.66114 26.3955C7.71377 26.5534 7.76641 26.7112 7.76641 26.8691C7.76641 27.027 7.71377 27.1849 7.55589 27.2902C7.24011 27.5007 6.81908 26.5534 6.76645 26.2376Z" fill="#493832"/>
<path d="M11.661 33.1847C13.8714 33.4478 16.1871 32.6584 17.766 31.0795C17.9765 30.869 17.6607 30.5532 17.4502 30.7638C15.924 32.2374 13.7662 32.9742 11.661 32.711C11.3979 32.711 11.3979 33.1847 11.661 33.1847Z" fill="#493832"/>
<path d="M21.3972 27.1323C22.4146 27.1323 23.2393 26.1426 23.2393 24.9218C23.2393 23.7011 22.4146 22.7114 21.3972 22.7114C20.3799 22.7114 19.5552 23.7011 19.5552 24.9218C19.5552 26.1426 20.3799 27.1323 21.3972 27.1323Z" fill="white"/>
<path d="M21.1343 27.1846C21.8319 27.1846 22.3974 26.4777 22.3974 25.6057C22.3974 24.7337 21.8319 24.0269 21.1343 24.0269C20.4367 24.0269 19.8712 24.7337 19.8712 25.6057C19.8712 26.4777 20.4367 27.1846 21.1343 27.1846Z" fill="#6B3736"/>
</svg>
