<svg width="81" height="81" viewBox="0 0 81 81" fill="none" xmlns="http://www.w3.org/2000/svg">
<path d="M26.1372 51.2469C27.9233 50.9121 29.7465 50.5028 31.3465 49.6097C34.6209 47.8609 36.9279 44.6237 39.4209 41.7214C42.1 38.5958 45.1884 35.7679 48.7233 33.833C52.2581 31.8981 56.314 30.9307 60.2209 31.526C63.607 32.0469 66.807 33.7586 69.4861 36.0655C70.9744 37.3679 72.3512 38.8563 73.3186 40.6423C74.8442 43.5074 75.2535 47.0051 74.4721 50.2051C73.6907 53.4051 71.7558 56.233 69.2256 58.0562C65.9884 60.3632 61.9698 61.033 58.1 61.3307C50.6209 61.9632 43.0675 61.6283 35.5884 60.6981C31.6442 60.2144 27.6628 59.5446 23.9047 58.019C20.1837 56.4935 16.6488 54.1121 14.3047 50.6144C14.0442 50.2051 13.7837 49.7214 13.9326 49.2748C14.193 48.6051 15.1605 48.7539 15.7186 49.2004C18.807 51.8423 22.4163 51.9167 26.1372 51.2469Z" fill="#98CCD8"/>
<path d="M6.82559 45.6655C8.98373 45.7772 11.1047 46.2237 13.0768 47.0051C13.3372 44.8841 13.9326 42.8376 14.9 40.9399C14.7884 41.1632 15.8302 43.0237 15.9419 43.3213C16.2396 44.2144 16.5 45.1074 16.7233 46.0004C17.0581 47.4888 17.6163 49.8702 17.1326 51.3585C16.1651 54.1492 11.2535 50.8748 10.0256 49.833C8.64884 48.6795 7.53257 47.2655 6.82559 45.6655Z" fill="#98CCD8"/>
<path d="M72.2768 49.461C68.0349 49.4982 63.8302 48.382 60.1093 46.3354C61.7093 49.4982 64.5 51.8796 67.3651 53.9261C68.6302 54.8192 70.007 55.675 71.5326 55.8238C71.8302 55.861 72.7605 54.1494 72.9093 53.8889C73.3558 53.182 73.6907 52.4006 74.0256 51.6564C74.1744 51.2471 74.8814 49.7959 74.6582 49.3866C74.4721 49.0517 72.7233 49.461 72.2768 49.461Z" fill="#ABE6EF"/>
<path d="M51.9605 50.8747C51.4395 51.0607 51.0674 51.5445 50.7698 52.0282C49.8023 53.7026 49.5791 55.8607 48.1651 57.2003C47.3465 57.9817 46.2302 58.3166 45.1884 58.7631C44.9279 58.8747 44.7047 58.9863 44.5558 59.2096C44.3326 59.5445 44.407 60.0282 44.6674 60.3631C44.9279 60.698 45.3372 60.8468 45.7465 60.9584C47.607 61.5166 49.6163 61.1073 51.514 60.5863C53.1512 60.1398 54.7884 59.5817 56.1651 58.6142C57.5419 57.6096 58.6209 56.1212 58.7698 54.4468C58.807 53.777 58.6954 53.07 58.2116 52.6235C57.6163 52.0654 56.6861 52.1026 55.9047 52.1026C55.1977 52.0654 54.193 52.0654 53.5977 51.5817C53.0395 51.1352 52.8163 50.577 51.9605 50.8747Z" fill="#ABE6EF"/>
<path d="M62.0814 47.3398C61.8581 47.6747 61.5977 48.0468 61.3372 48.3445C61.3744 48.3817 61.4116 48.4561 61.4488 48.4933C61.7465 48.1584 62.007 47.7863 62.2675 47.4143C62.193 47.377 62.1558 47.3771 62.0814 47.3398Z" fill="white"/>
<path d="M63.4581 47.8979C63.1233 48.4933 62.7512 49.0514 62.3419 49.6096C62.3791 49.6468 62.4163 49.7212 62.4535 49.7584C62.6023 49.5724 62.7139 49.3863 62.8628 49.2003C63.1233 48.791 63.3837 48.3817 63.6442 47.9724C63.5698 47.9352 63.5326 47.8979 63.4581 47.8979Z" fill="white"/>
<path d="M68.8535 49.2374C68.7791 49.2374 68.7419 49.2374 68.6674 49.2002C68.4814 49.5723 68.2581 49.9816 68.0721 50.3537C67.6256 51.1351 67.0674 51.8793 66.5093 52.6234C66.3977 52.7723 66.2861 52.8839 66.1744 53.0327C66.2116 53.07 66.286 53.1072 66.3233 53.1444C66.6954 52.6979 67.0674 52.2514 67.4023 51.8048C67.9605 51.0607 68.407 50.242 68.8535 49.4234C68.8163 49.3118 68.8163 49.2746 68.8535 49.2374Z" fill="white"/>
<path d="M65.2442 48.5677C65.2442 48.5305 65.2814 48.5305 65.2814 48.4933C65.207 48.4933 65.1698 48.4561 65.0953 48.4561C64.9093 48.7909 64.6861 49.1258 64.4628 49.4607C64.2023 49.8328 63.9791 50.2049 63.7186 50.6142C63.6442 50.6886 63.607 50.8002 63.5326 50.8747C63.5698 50.9119 63.607 50.9491 63.6814 50.9863C63.6814 50.9863 63.6814 50.9863 63.6814 50.9491C64.2395 50.1677 64.7605 49.3863 65.2442 48.5677Z" fill="white"/>
<path d="M72.0163 53.033C72.6488 51.8051 73.2442 50.5772 73.7279 49.2749C73.6535 49.2749 73.5791 49.2749 73.5047 49.3121C73.4674 49.3493 73.4675 49.4237 73.4302 49.4609C73.207 50.0935 72.9465 50.6889 72.6488 51.2842C72.0907 52.4749 71.4582 53.6284 70.7884 54.7819C70.6395 55.0424 70.4535 55.3028 70.3047 55.5261C70.3791 55.5633 70.4163 55.5633 70.4907 55.6005C71.0116 54.7819 71.5326 53.9261 72.0163 53.033Z" fill="white"/>
<path d="M65.5419 51.0607C65.9512 50.3537 66.3605 49.6095 66.7698 48.8653C66.6954 48.8653 66.6581 48.8281 66.5837 48.8281C66.4349 49.1258 66.2861 49.3863 66.1372 49.6839C65.7279 50.4653 65.2814 51.2095 64.7977 51.9537C64.8349 51.9909 64.9093 52.0281 64.9465 52.0653C65.1326 51.7304 65.3186 51.3956 65.5419 51.0607Z" fill="white"/>
<path d="M68.2209 54.4842C68.3698 54.2609 68.4814 54.0377 68.6302 53.8144C69.3744 52.6237 70.0814 51.4702 70.6395 50.2051C70.7512 49.9447 70.8628 49.6842 70.9744 49.4609C70.9 49.4609 70.8256 49.4609 70.7884 49.4609C70.4535 50.2795 70.0442 51.0981 69.5977 51.8795C69.2628 52.5121 68.8907 53.1074 68.5186 53.7028C68.3698 53.9261 68.2209 54.1865 68.0721 54.4098C68.1093 54.4098 68.1837 54.447 68.2209 54.4842Z" fill="white"/>
<path d="M61.0765 27.2841C62.3044 26.5399 64.016 26.6144 65.1695 27.5074C65.2439 27.5818 65.3556 27.619 65.43 27.619C65.5044 27.619 65.5788 27.5074 65.616 27.433C66.137 26.5027 65.616 25.1632 64.6114 24.8283C65.0579 24.4562 64.8718 23.712 64.4253 23.34C63.9788 23.0051 63.3463 23.0051 62.7881 23.0423C62.8625 22.3725 62.5277 21.7027 62.0439 21.2562C61.523 20.8097 60.8905 20.5865 60.2207 20.512C59.6625 20.4376 59.03 20.4376 58.5463 20.7353C58.0625 21.033 57.8021 21.74 58.0998 22.2237C58.0625 22.0004 57.8765 21.8888 57.6904 21.7772C56.1649 20.9958 54.0811 21.74 53.4114 23.3027C53.2253 23.6748 53.2253 24.233 53.5974 24.3818C53.9695 24.5306 54.3044 24.1586 54.6021 23.8981C54.8998 23.6376 55.2718 23.4516 55.6439 23.5632C56.016 23.6748 56.2393 24.1958 55.9788 24.4562C54.7881 24.1958 53.4486 24.6795 52.7416 25.6841C52.0346 26.6888 52.0346 28.1027 52.6672 29.1446C52.7044 28.326 53.1509 27.5074 53.8579 27.0609C54.5649 26.6144 55.4951 26.5772 56.2765 26.912C57.0579 27.2841 57.616 28.0283 57.9881 28.8469C58.2858 29.5539 58.3602 30.6702 58.8439 31.2655C59.3277 30.9306 59.2905 29.8888 59.4765 29.3679C59.6998 28.5492 60.2579 27.7306 61.0765 27.2841Z" fill="#ABE6EF"/>
<path d="M64.0163 41.4237C64.9205 41.4237 65.6535 40.5407 65.6535 39.4516C65.6535 38.3624 64.9205 37.4795 64.0163 37.4795C63.1121 37.4795 62.3791 38.3624 62.3791 39.4516C62.3791 40.5407 63.1121 41.4237 64.0163 41.4237Z" fill="white"/>
<path d="M64.2395 41.4236C64.856 41.4236 65.3558 40.7906 65.3558 40.0097C65.3558 39.2287 64.856 38.5957 64.2395 38.5957C63.623 38.5957 63.1233 39.2287 63.1233 40.0097C63.1233 40.7906 63.623 41.4236 64.2395 41.4236Z" fill="#6B3736"/>
</svg>
