<svg width="81" height="81" viewBox="0 0 81 81" fill="none" xmlns="http://www.w3.org/2000/svg">
<path d="M33.8118 57.9435C32.7754 57.6326 30.599 59.6017 30.7545 62.1408C30.91 64.6799 30.4954 68.7736 31.7909 70.0173C33.0863 71.3127 34.2782 70.38 34.6409 70.0173C35.0036 69.6545 35.8327 63.3845 35.9364 62.1926C36.04 61.1044 35.8846 58.6171 33.8118 57.9435Z" fill="#D19182"/>
<path d="M48.4247 57.9435C49.4611 57.6326 51.6375 59.6017 51.482 62.1408C51.3266 64.6799 51.7411 68.7736 50.4456 70.0173C49.1502 71.3127 47.9583 70.38 47.5956 70.0173C47.2329 69.6545 46.4038 63.3845 46.3001 62.1926C46.1965 61.0008 46.4038 58.6171 48.4247 57.9435Z" fill="#D19182"/>
<path d="M43.0874 12.8613C43.0874 12.8613 41.3256 9.64854 37.6464 11.514C33.9673 13.3795 33.8637 15.4522 33.8637 15.4522C33.8637 15.4522 29.4072 12.8613 27.0236 14.2086C24.6399 15.5041 24.1217 18.4059 24.1217 18.4059C24.1217 18.4059 20.0799 17.8877 18.4217 20.4787C16.7635 23.0696 19.7171 26.3342 19.7171 26.3342C19.7171 26.3342 14.9498 26.4378 14.2243 29.5988C13.4989 32.7597 16.9707 35.1952 16.9707 35.1952C16.9707 35.1952 13.758 36.5943 13.3434 39.4962C12.9289 42.4498 16.1416 44.678 16.1416 44.678C16.1416 44.678 12.2552 48.1499 13.3434 51.6218C14.4316 55.0936 18.9917 54.3682 18.9917 54.3682C18.9917 54.3682 19.6135 58.7209 23.2926 59.8091C26.9718 60.8973 29.9254 58.1509 29.9254 58.1509C29.9254 58.1509 30.7545 63.281 34.3818 63.281C38.0092 63.281 38.6828 60.4828 38.6828 60.4828C38.6828 60.4828 41.0147 64.1619 43.6056 64.1619C46.1965 64.1619 48.4766 59.7573 48.4766 59.7573C48.4766 59.7573 51.1193 61.9855 54.5912 61.2601C58.063 60.5346 58.1149 57.3736 58.1149 57.3736C58.1149 57.3736 61.2758 58.3582 63.4522 57.2182C65.6286 56.13 64.5404 51.3627 64.5404 51.3627C64.5404 51.3627 66.354 50.6372 66.924 47.3726C67.4941 44.0562 64.9031 43.5898 64.9031 43.5898C64.9031 43.5898 68.5822 41.0507 68.5822 37.8898C68.5822 34.7288 64.7476 33.7443 64.7476 33.7443C64.7476 33.7443 67.4941 32.3452 66.924 29.3397C66.354 26.3342 62.8822 25.7124 62.8822 25.7124C62.8822 25.7124 64.6958 22.4478 63.4522 20.4787C62.1567 18.4577 58.633 18.4059 58.633 18.4059C58.633 18.4059 59.4103 15.4522 56.0939 14.2086C52.7775 12.9649 49.6684 15.4522 49.6684 15.4522C49.6684 15.4522 49.5129 14.0531 47.7511 12.8613C46.0929 11.6695 43.0874 12.8613 43.0874 12.8613Z" fill="#F7F0E3"/>
<path d="M34.7963 31.4122C34.7963 31.4122 28.9408 32.1895 27.5935 37.0605C26.2462 41.9314 28.9408 46.8024 33.7599 47.3206C37.18 47.6833 40.7036 47.787 44.1755 47.6315C47.4919 47.4761 51.9483 47.6833 54.0729 44.3151C55.8347 41.4651 55.7829 36.9568 53.3992 34.5732C50.9119 32.0341 47.181 31.1013 43.8646 30.8422C40.8591 30.5313 37.8018 30.8422 34.7963 31.4122Z" fill="#EDD4CD"/>
<path d="M37.3356 40.2217C38.3945 40.2217 39.2529 39.0153 39.2529 37.5271C39.2529 36.0389 38.3945 34.8325 37.3356 34.8325C36.2767 34.8325 35.4183 36.0389 35.4183 37.5271C35.4183 39.0153 36.2767 40.2217 37.3356 40.2217Z" fill="white"/>
<path d="M37.3357 40.2216C38.0798 40.2216 38.683 39.4096 38.683 38.4079C38.683 37.4062 38.0798 36.5942 37.3357 36.5942C36.5916 36.5942 35.9884 37.4062 35.9884 38.4079C35.9884 39.4096 36.5916 40.2216 37.3357 40.2216Z" fill="#6B3736"/>
<path d="M44.9529 40.2217C46.0118 40.2217 46.8702 39.0153 46.8702 37.5271C46.8702 36.0389 46.0118 34.8325 44.9529 34.8325C43.894 34.8325 43.0356 36.0389 43.0356 37.5271C43.0356 39.0153 43.894 40.2217 44.9529 40.2217Z" fill="white"/>
<path d="M44.9529 40.2216C45.697 40.2216 46.3002 39.4096 46.3002 38.4079C46.3002 37.4062 45.697 36.5942 44.9529 36.5942C44.2088 36.5942 43.6056 37.4062 43.6056 38.4079C43.6056 39.4096 44.2088 40.2216 44.9529 40.2216Z" fill="#6B3736"/>
<path d="M40.8592 42.7607C40.8592 42.7607 39.7192 42.1907 39.771 41.9834C39.8229 41.7762 41.6365 41.8798 41.8956 41.9834C42.1547 42.0871 41.5847 42.6571 40.8592 42.7607Z" fill="#6B3736"/>
<path d="M40.7039 42.5016C40.7039 42.5016 40.7557 44.108 40.393 44.4189C39.9784 44.7816 38.2684 45.4034 37.2838 44.4707C37.2838 44.4707 36.9729 44.3152 36.9729 44.5225C36.9729 44.7298 38.0093 45.3516 39.0975 45.1443C40.1339 44.9371 40.6002 44.678 40.7039 44.4707C40.7039 44.4707 41.7402 45.1443 42.9839 45.0925C44.2275 45.0407 44.5384 44.7816 44.6939 44.6262C44.9012 44.4707 44.6939 44.3671 44.5903 44.4189C44.4348 44.4707 43.813 44.9371 42.8284 44.8334C42.4657 44.7816 42.0512 44.7298 41.6884 44.5743C41.4811 44.5225 41.0666 44.4189 40.9111 44.2116C40.8075 44.0562 40.8593 43.7452 40.8593 43.538C40.8593 43.4861 40.9111 42.3979 40.963 42.3979C41.0148 42.5016 40.7039 42.5016 40.7039 42.5016Z" fill="#6B3736"/>
<path d="M35.4183 30.428C35.4183 30.428 27.9564 30.0135 24.4327 35.5063C20.909 40.9991 28.1118 40.5327 28.63 38.7709C29.1482 37.009 34.3819 33.3299 35.9883 32.9153C37.5947 32.5008 36.921 30.5317 35.4183 30.428Z" fill="#D19182"/>
<path d="M47.9066 30.428C47.9066 30.428 55.3685 30.0135 58.8921 35.5063C62.4158 40.9991 55.213 40.5327 54.6948 38.7709C54.1766 37.009 48.9429 33.3299 47.3365 32.9153C45.782 32.5008 46.4556 30.5317 47.9066 30.428Z" fill="#D19182"/>
<path d="M38.6309 28.9253C38.1645 28.8735 37.439 28.7699 37.5427 29.4435C37.5427 29.4435 36.7136 29.4435 36.6617 30.2726C36.6099 31.1017 37.3354 31.5163 37.3354 31.5163C37.3354 31.5163 37.6463 32.6045 38.579 32.2417C38.579 32.2417 39.5118 32.9672 40.0818 32.1381C40.0818 32.1381 40.7554 32.449 41.3772 32.0863C41.9991 31.7754 41.8954 31.4126 41.8954 31.4126C41.8954 31.4126 42.2582 32.0345 42.9318 32.0863C43.5536 32.1381 43.7091 31.7754 43.7091 31.7754C43.7091 31.7754 43.8127 32.449 44.6418 32.3454C45.5228 32.2417 45.5746 31.7235 45.5746 31.7235C45.5746 31.7235 46.3 31.8272 46.4555 31.2053C46.611 30.5835 46.1964 30.0653 46.1964 30.0653C46.1964 30.0653 46.6628 29.5471 46.0928 29.1844C45.5746 28.8217 44.9009 29.0808 44.9009 29.0808C44.9009 29.0808 44.2791 28.5108 43.7609 28.5108C43.2427 28.5108 43.1391 29.0808 43.1391 29.0808C43.1391 29.0808 42.9318 28.7699 42.5691 28.7699C42.2064 28.7699 41.8954 29.2362 41.8954 29.2362C41.8954 29.2362 41.6363 28.6144 41.1182 28.5108C40.6 28.459 40.2372 29.1326 40.2372 29.1326C40.2372 29.1326 39.9781 28.6144 39.6154 28.5108C39.2009 28.4071 38.6309 28.9253 38.6309 28.9253Z" fill="#F7F0E3"/>
</svg>
