<svg width="80" height="81" viewBox="0 0 80 81" fill="none" xmlns="http://www.w3.org/2000/svg">
<path d="M25.0046 55.0755C25.0046 55.0755 18.0465 61.0662 14.586 56.5638C12.3907 53.6987 15.4046 48.6755 13.1349 46.108C13.1349 46.108 10.0837 48.0801 8.18604 46.0336C8.48371 45.8848 9.07906 45.6987 9.45115 45.4755C9.97208 45.1034 10.3814 44.508 11.1256 44.4708C11.9442 44.4336 12.6139 45.0662 13.2093 45.5127C13.2093 45.5127 15.0325 46.7778 14.9953 49.0848C14.9581 51.3917 14.5116 55.0382 15.8512 56.2661C17.5628 57.8661 20.3163 57.6429 25.3767 53.7359L25.0046 55.0755Z" fill="#6F3534"/>
<path d="M49.6744 55.2614C52.5768 52.0614 53.8791 44.6195 54.2884 40.4521C54.5861 37.587 54.5116 34.6475 54.2512 31.7823C54.0651 30.0335 53.8047 28.2847 53.4698 26.573C52.9488 23.8568 52.1675 21.6614 51.0512 19.1312C50.0837 16.973 48.8186 14.3684 48.9302 11.9126C48.9302 11.9126 45.7302 12.9916 44.2791 11.9126C42.8279 10.8335 41.5628 8.22884 41.5628 8.22884C41.5628 8.22884 45.3209 6.51722 49.3395 9.71722C49.3395 9.71722 50.5675 6.36838 55.7023 6.36838C55.7023 6.36838 56.5209 3.2428 59.7209 2.8335C59.7209 2.8335 60.614 5.84746 58.8279 6.51723C58.8279 6.51723 67.3116 7.74513 70.6233 13.1405C73.9721 18.5358 69.7302 22.7777 66.1209 22.6288C62.5116 22.48 60.3907 19.8382 58.1209 17.4568C55.8512 15.0754 54.8465 17.1219 55.6651 20.1358C56.4837 23.1498 60.2047 41.8288 59.3861 59.3916C59.1256 61.587 58.6047 63.7823 57.9721 65.9033C57.3768 67.8381 56.6698 69.773 55.7768 71.5963C54.2884 74.5358 51.7954 76.7684 52.1302 80.3405H49.3395C49.3395 80.3405 50.4186 65.3079 37.9907 65.3079C25.5628 65.3079 24.0744 80.3405 24.0744 80.3405H21.3581C21.3581 80.3405 16.0372 48.2661 35.1628 47.9684C35.1628 47.9684 44.1302 47.0754 48.7814 53.8847L49.6744 55.2614Z" fill="#FCB332"/>
<path d="M54.586 7.67109C54.586 7.55946 53.6186 2.87109 53.6186 2.87109L52.5767 3.09435L54.0279 7.67109H54.586Z" fill="#FCB332"/>
<path d="M51.9442 8.48972L49.1163 4.13623L48.2604 4.76879L51.4976 8.86182L51.9442 8.48972Z" fill="#FCB332"/>
<path d="M52.986 3.57785C53.5614 3.57785 54.0279 3.1114 54.0279 2.536C54.0279 1.96059 53.5614 1.49414 52.986 1.49414C52.4106 1.49414 51.9442 1.96059 51.9442 2.536C51.9442 3.1114 52.4106 3.57785 52.986 3.57785Z" fill="#FCB332"/>
<path d="M48.4465 5.28939C49.0836 5.28939 49.6 4.77296 49.6 4.1359C49.6 3.49885 49.0836 2.98242 48.4465 2.98242C47.8095 2.98242 47.293 3.49885 47.293 4.1359C47.293 4.77296 47.8095 5.28939 48.4465 5.28939Z" fill="#FCB332"/>
<path d="M61.2837 11.0568C62.0441 11.0568 62.6605 10.3072 62.6605 9.38243C62.6605 8.45767 62.0441 7.70801 61.2837 7.70801C60.5234 7.70801 59.907 8.45767 59.907 9.38243C59.907 10.3072 60.5234 11.0568 61.2837 11.0568Z" fill="white"/>
<path d="M57.0046 12.5451C57.765 12.5451 58.3814 11.7955 58.3814 10.8707C58.3814 9.94595 57.765 9.19629 57.0046 9.19629C56.2443 9.19629 55.6279 9.94595 55.6279 10.8707C55.6279 11.7955 56.2443 12.5451 57.0046 12.5451Z" fill="white"/>
<path d="M61.4697 10.9824C62.0246 10.9824 62.4744 10.416 62.4744 9.71726C62.4744 9.01856 62.0246 8.45215 61.4697 8.45215C60.9149 8.45215 60.4651 9.01856 60.4651 9.71726C60.4651 10.416 60.9149 10.9824 61.4697 10.9824Z" fill="#6B3736"/>
<path d="M57.1907 12.4336C57.7455 12.4336 58.1953 11.8672 58.1953 11.1684C58.1953 10.4697 57.7455 9.90332 57.1907 9.90332C56.6358 9.90332 56.186 10.4697 56.186 11.1684C56.186 11.8672 56.6358 12.4336 57.1907 12.4336Z" fill="#6B3736"/>
<path d="M64.6325 21.9592C64.6325 21.9592 61.7302 20.1732 61.8046 18.0522" stroke="#6B3736" stroke-miterlimit="10" stroke-linecap="round" stroke-linejoin="round"/>
<path d="M52.5767 6.92676L52.7256 8.04304L51.2372 10.1268L49.786 10.3128L49.6372 9.19653C49.6372 9.19653 50.493 7.63373 52.5767 6.92676Z" fill="#6B3736"/>
<path d="M49.3023 14.815L50.9767 13.6987L51.9442 14.3313L51.6465 16.8615L50.7163 17.0848L49.9721 16.7127C49.9721 16.7127 49.4884 15.4104 49.3023 14.815Z" fill="#6B3736"/>
<path d="M55.4047 18.3125L54.2512 19.0567L54.4 20.8427L55.5907 21.959L56 21.4753L55.4047 18.3125Z" fill="#6B3736"/>
<path d="M51.0511 19.1685L51.9442 19.8382L52.7256 22.108L52.5767 23.1498L51.0511 19.1685Z" fill="#6B3736"/>
<path d="M53.0977 25.0476L54.0279 23.1499L55.107 24.3034L55.3674 26.3127L53.7674 28.2476L53.0977 25.0476Z" fill="#6B3736"/>
<path d="M57.1535 27.4291L56.4093 27.0942L56 28.8803L57.0047 30.9268L57.786 31.5221L57.1535 27.4291Z" fill="#6B3736"/>
<path d="M54.0651 30.5547L55.3674 31.1128L56 34.164L55.107 34.9826L54.4 34.2756L54.0651 30.5547Z" fill="#6B3736"/>
<path d="M57.1907 34.5361L57.786 35.3919V36.8059L56.893 37.7361L56 35.8012L57.1907 34.5361Z" fill="#6B3736"/>
<path d="M58.7162 39.0757L58.2325 40.7873L57.786 44.8431L59.2744 45.8478L58.7162 39.0757Z" fill="#6B3736"/>
<path d="M54.4372 38.2568L56.4093 39.4475V41.9033L55.0326 43.1685L54.0651 42.1266L54.4372 38.2568Z" fill="#6B3736"/>
<path d="M55.3674 45.3638L57.4512 47.2242L57.7861 49.4196L54.0651 49.0103L55.3674 45.3638Z" fill="#6B3736"/>
<path d="M59.5349 53.1035L57.2651 55.5593L56.4093 61.8849L58.9395 62.257L59.4233 59.3919L59.5349 53.1035Z" fill="#6B3736"/>
<path d="M52.1674 50.6475L53.5069 52.3963V55.1126H51.0511L50.4186 54.294C50.4186 54.3312 51.7953 51.7637 52.1674 50.6475Z" fill="#6B3736"/>
<path d="M47.4791 52.3222V53.6989L44.5395 52.8803L44.2047 50.3501H45.0977C45.0977 50.3501 46.586 51.2803 47.4791 52.3222Z" fill="#6B3736"/>
<path d="M41.3023 51.3548L38.8465 50.8711L38.0651 51.6153L41.5628 52.8804L41.3023 51.3548Z" fill="#6B3736"/>
<path d="M43.9441 55.1497L45.6186 54.8521L47.2558 55.8939L45.1721 56.7869L43.0139 55.8195L43.9441 55.1497Z" fill="#6B3736"/>
<path d="M42.1209 48.9358L42.493 49.4195L38.0651 48.787L38.7721 48.1544C38.7721 48.1172 40.5954 48.3033 42.1209 48.9358Z" fill="#6B3736"/>
<path d="M36.8372 49.7546L35.2744 48.75L33.0419 49.0105L32.0372 50.35L35.5721 50.8709L36.8372 49.7546Z" fill="#6B3736"/>
<path d="M28.9488 49.5312L30.214 49.3823L29.1721 50.8335L26.7163 52.0242L26.3814 51.5033C26.3442 51.5033 27.5349 50.2009 28.9488 49.5312Z" fill="#6B3736"/>
<path d="M31.2186 51.8755L32.0372 52.8801L29.3209 53.6987L28.2418 53.3266L31.2186 51.8755Z" fill="#6B3736"/>
<path d="M36.2418 52.8804L37.8046 53.699L38.3256 54.8525L34.8279 55.1501V53.1036L36.2418 52.8804Z" fill="#6B3736"/>
<path d="M52.3163 78.1079H49.3395V80.3777H52.1302C52.1674 80.3405 52.093 78.8149 52.3163 78.1079Z" fill="#6B3736"/>
<path d="M24.4837 78.1079H21.0605L21.3582 80.3405H24.0744L24.4837 78.1079Z" fill="#6B3736"/>
</svg>
