<svg width="80" height="81" viewBox="0 0 80 81" fill="none" xmlns="http://www.w3.org/2000/svg">
<path d="M54.2972 59.624C58.4096 59.6761 62.0535 57.5418 63.1467 53.4293C63.9796 50.2539 63.1467 46.9744 62.522 43.851C62.4179 43.3305 62.3138 41.925 62.3658 43.1743C62.3658 42.862 62.3658 41.4564 62.3138 41.977C62.3658 41.6126 62.7823 40.2071 62.6782 40.4674C62.8864 39.9989 63.1467 39.8427 62.9385 39.9468C62.3138 40.103 61.9494 39.9989 62.8864 40.2071C62.6782 40.1551 62.3138 39.8427 62.2097 39.8427C61.8973 39.7907 62.6261 40.2592 62.3138 39.9989C62.2097 39.8948 62.2097 40.4153 62.3138 40.155C62.47 39.6865 62.2617 39.5824 62.5741 38.9578C63.3549 37.6564 65.6974 38.8537 64.5522 37.3961C62.8344 35.1577 59.0343 35.5741 57.2123 37.3961C55.026 39.5824 55.4945 42.5496 57.2123 44.736C62.0535 50.9307 72.5688 48.1717 72.6729 39.9468C72.7771 33.3357 66.218 28.3383 59.8672 30.0041C54.1931 31.5138 51.4341 38.1769 51.9546 43.5907C52.1108 45.4127 52.8396 48.2237 52.9958 49.369C52.9437 48.7964 53.0478 50.2019 53.0478 50.358C53.1519 51.3471 53.0999 50.6183 53.0478 50.7224C52.7355 51.0868 53.5684 49.9416 53.8287 49.7334C54.2972 49.369 55.4424 49.2649 54.2451 49.2649C47.634 49.1087 47.5819 59.5199 54.2972 59.624Z" fill="#BA5102"/>
<path d="M25.2499 49.5771C22.1265 49.5771 19.6278 53.0649 19.6278 57.4376C19.6278 59.0513 19.9922 60.561 20.5648 61.8103C19.1593 62.0706 18.1182 63.1117 18.1182 64.3611C18.1182 65.8186 19.5237 66.9639 21.2936 66.9639C22.6991 66.9639 23.8964 66.2351 24.3128 65.194C24.6252 65.2981 24.9375 65.2981 25.3019 65.2981C28.4253 65.2981 30.924 61.8103 30.924 57.4376C30.924 53.0649 28.3732 49.5771 25.2499 49.5771Z" fill="#BA5102"/>
<path d="M51.9546 49.5771C55.078 49.5771 57.5767 53.0649 57.5767 57.4376C57.5767 59.0513 57.2123 60.561 56.6397 61.8103C58.0452 62.0706 59.0863 63.1117 59.0863 64.3611C59.0863 65.8186 57.6808 66.9639 55.9109 66.9639C54.5054 66.9639 53.3081 66.2351 52.8917 65.194C52.5793 65.2981 52.267 65.2981 51.9026 65.2981C48.7792 65.2981 46.2805 61.8103 46.2805 57.4376C46.2805 53.0649 48.8313 49.5771 51.9546 49.5771Z" fill="#BA5102"/>
<path d="M55.3902 69.098L49.0914 71.1282C48.3106 71.3885 47.5298 70.9721 47.2695 70.1912L47.2174 70.035C46.6448 70.1392 46.0201 70.2433 45.3955 70.3474C45.5516 69.2022 45.6557 68.0049 45.6557 66.7555C45.6557 59.2595 42.3242 53.221 38.2638 53.221C34.1514 53.221 30.8718 59.2595 30.8718 66.7555C30.8718 68.0049 30.976 69.2022 31.1321 70.3474C30.4554 70.2433 29.8307 70.1392 29.2061 70.035C28.9458 70.7118 28.1649 71.0762 27.4361 70.8679L21.1374 68.8378C20.3565 68.5775 19.9401 67.7446 20.2004 66.9637L20.8771 65.1418C20.9292 64.9856 20.9812 64.8294 21.0333 64.6733L28.8417 40.1549L49.7682 40.0508L55.3382 64.8815L56.1711 67.172C56.5875 68.0049 56.1711 68.8898 55.3902 69.098Z" fill="#D86A0B"/>
<path d="M31.1841 57.854C31.1841 58.8951 31.08 59.9362 30.9759 60.9253C30.8718 61.9664 30.7156 62.9555 30.5595 63.9966C30.2471 66.0268 29.8827 68.057 29.3622 70.0872V70.1392C29.3101 70.1913 29.2581 70.2433 29.206 70.2954C29.154 70.3474 29.1019 70.3995 29.0498 70.4516C28.9457 70.5557 28.8416 70.6598 28.6854 70.7118C28.7896 70.6077 28.8416 70.5036 28.9457 70.3995C28.9978 70.3475 28.9978 70.2954 29.0498 70.1913C29.0498 70.1392 29.1019 70.0872 29.1019 69.9831V70.0351C29.206 67.9529 29.5183 65.9227 29.8307 63.8925C29.9868 62.8514 30.1951 61.8623 30.4033 60.8733C30.6636 59.8321 30.9239 58.8431 31.1841 57.854Z" fill="#873B03"/>
<path d="M22.1263 69.1501C22.2304 68.9419 22.3346 68.7337 22.4387 68.5255C22.5428 68.3172 22.6469 68.109 22.751 67.9528C22.9592 67.5364 23.2195 67.172 23.4798 66.8076C23.3236 67.2241 23.2195 67.6405 23.1154 68.109C23.0633 68.3172 23.0113 68.5255 22.9592 68.7337C22.9072 68.9419 22.8551 69.1501 22.8551 69.3584L22.1263 69.1501Z" fill="#873B03"/>
<path d="M25.3539 70.243C25.458 70.0348 25.5621 69.8266 25.6142 69.6704C25.7183 69.4622 25.7704 69.254 25.8745 69.0457C26.0306 68.6293 26.1868 68.2128 26.2909 67.7964C26.2909 68.2649 26.2909 68.6813 26.2389 69.1498C26.2389 69.3581 26.1868 69.6183 26.1868 69.8266C26.1347 70.0348 26.1348 70.2951 26.0827 70.5033L25.3539 70.243Z" fill="#873B03"/>
<path d="M45.2394 57.854C45.5518 58.8431 45.812 59.8842 46.0203 60.9253C46.2285 61.9664 46.4367 63.0075 46.6449 64.0487C47.0093 66.1309 47.2696 68.2131 47.4258 70.2954V70.2433C47.4258 70.2954 47.4778 70.3475 47.4778 70.4516C47.5299 70.5036 47.5299 70.5557 47.5819 70.6598C47.634 70.7639 47.7381 70.9201 47.8422 70.9721C47.6861 70.9201 47.5819 70.816 47.4778 70.7118C47.4258 70.6598 47.3737 70.6077 47.3217 70.5557C47.2696 70.5036 47.2176 70.4516 47.1655 70.3995V70.3474C46.6449 68.3173 46.2285 66.235 45.9161 64.1528C45.76 63.1117 45.6038 62.0705 45.4997 61.0294C45.3956 59.9362 45.2915 58.8951 45.2394 57.854Z" fill="#873B03"/>
<path d="M53.6725 69.6704C53.6204 69.4621 53.6204 69.2539 53.5684 69.0457C53.5163 68.8375 53.4643 68.6293 53.4122 68.421C53.3081 68.0046 53.204 67.5881 53.0478 67.1196C53.3081 67.484 53.5163 67.8484 53.7766 68.2649C53.8807 68.4731 53.9848 68.6813 54.0889 68.8375C54.193 69.0457 54.2972 69.2539 54.4013 69.4621L53.6725 69.6704Z" fill="#873B03"/>
<path d="M50.4448 70.7118C50.3927 70.4515 50.3927 70.2433 50.3407 70.0351C50.2886 69.8268 50.2886 69.5666 50.2886 69.3583C50.2366 68.8898 50.2366 68.4734 50.2366 68.0049C50.3407 68.4213 50.4969 68.8378 50.653 69.2542C50.7571 69.4624 50.8092 69.6707 50.9133 69.8789C51.0174 70.0871 51.0695 70.2954 51.1736 70.4515L50.4448 70.7118Z" fill="#873B03"/>
<path d="M45.7079 66.7553C45.7079 68.0046 45.6038 69.2019 45.4476 70.3471C43.2613 70.6595 40.8147 70.8156 38.2639 70.8156C35.7652 70.8156 33.3706 70.6595 31.1843 70.3471C31.0281 69.2019 30.924 68.0046 30.924 66.7553C30.924 59.2592 34.2556 53.2207 38.316 53.2207C42.3763 53.2207 45.7079 59.2592 45.7079 66.7553Z" fill="#FFC04B"/>
<path d="M52.0774 35.4301C58.1769 33.9879 61.9524 27.8742 60.5103 21.7748C59.0681 15.6753 52.9544 11.8998 46.855 13.3419C40.7555 14.784 36.98 20.8977 38.4221 26.9972C39.8642 33.0967 45.9779 36.8722 52.0774 35.4301Z" fill="#BA5102"/>
<path d="M23.7084 42.1478C29.8079 40.7057 33.5834 34.592 32.1413 28.4925C30.6991 22.3931 24.5854 18.6175 18.486 20.0597C12.3865 21.5018 8.61095 27.6155 10.0531 33.715C11.4952 39.8145 17.6089 43.59 23.7084 42.1478Z" fill="#BA5102"/>
<path d="M51.4868 32.9132C55.8515 31.8812 58.5533 27.5063 57.5213 23.1415C56.4893 18.7768 52.1144 16.075 47.7496 17.107C43.3848 18.139 40.6831 22.5139 41.7151 26.8787C42.7471 31.2435 47.122 33.9452 51.4868 32.9132Z" fill="#FFC04B"/>
<path d="M23.3818 38.9054C27.7466 37.8734 30.4483 33.4985 29.4164 29.1337C28.3844 24.769 24.0094 22.0672 19.6447 23.0992C15.2799 24.1312 12.5782 28.5061 13.6101 32.8709C14.6421 37.2356 19.0171 39.9374 23.3818 38.9054Z" fill="#FFC04B"/>
<path d="M40.1898 48.9525C36.2336 49.9416 31.6527 49.7854 27.9046 48.6922C23.0114 47.2347 19.2113 43.4866 17.4934 39.2701C15.4632 34.2727 16.9208 29.3795 20.0962 24.7465C20.825 23.7054 21.6058 22.6642 22.4908 21.7272C23.8442 20.2697 25.458 18.9162 27.1758 17.823C31.1321 15.2723 35.0883 14.6476 39.6172 15.4805C47.9982 17.0942 56.119 23.0286 56.7436 31.1494C57.056 35.1577 55.4943 39.4783 52.423 42.6017C49.2476 45.8292 44.7187 47.7552 40.1898 48.9525Z" fill="#D86A0B"/>
<path d="M49.5599 26.5682C49.2996 22.0914 43.8338 19.0201 38.1076 18.3954C34.9842 18.031 32.1732 18.5515 29.3622 20.1132C28.1128 20.79 26.9676 21.6229 25.9785 22.5078C25.3539 23.0804 24.7292 23.7051 24.2086 24.2777C21.8661 26.9846 20.6688 29.7956 21.9182 32.6067C22.0223 32.8149 22.0744 32.9711 22.1785 33.1272C20.6688 35.5739 20.2003 38.0726 21.2935 40.5712C22.5949 43.3823 25.5621 45.7769 29.6225 46.5577C32.6938 47.1824 36.5459 47.0783 39.8255 46.2974C43.6255 45.3604 47.4777 43.8508 50.2887 41.5083C52.9436 39.2698 54.4011 36.3027 54.297 33.5957C54.1929 30.6806 52.3189 28.286 49.5599 26.5682Z" fill="#FFC04B"/>
<path d="M35.6091 31.0969L38.3681 30.4201C39.201 30.2119 39.8256 31.0969 39.3571 31.7736L38.264 33.3353C38.0037 33.7517 37.379 33.9079 36.9626 33.6476L35.2968 32.7106C34.568 32.3983 34.7241 31.3051 35.6091 31.0969Z" fill="#5B462B"/>
<path d="M33.4747 37.1357C34.3597 37.2919 35.1926 37.3439 36.0255 37.3439C36.8583 37.3439 37.6912 37.2918 38.4721 37.0836C38.8885 36.9795 39.2529 36.8754 39.6173 36.7192C39.9817 36.5631 40.3461 36.4069 40.7626 36.2507C41.4913 35.8863 42.1681 35.3658 42.8969 34.8452C42.4804 35.6261 41.8557 36.3028 41.1269 36.8233C40.7626 37.0836 40.3461 37.3439 39.9297 37.5001C39.5132 37.7083 39.0968 37.8124 38.6283 37.9165C37.7433 38.1247 36.8063 38.1247 35.9213 37.9686C35.0885 37.9686 34.2035 37.6562 33.4747 37.1357Z" fill="#5B462B"/>
<path d="M37.4829 32.9712L38.576 37.6042" stroke="#5B462B" stroke-miterlimit="10"/>
<path d="M29.7179 32.242C30.9196 31.847 31.4571 30.1982 30.9184 28.5595C30.3797 26.9208 28.9687 25.9126 27.767 26.3076C26.5653 26.7027 26.0278 28.3514 26.5665 29.9901C27.1052 31.6289 28.5161 32.6371 29.7179 32.242Z" fill="white"/>
<path d="M29.714 32.242C30.588 31.9547 30.9981 30.814 30.63 29.6942C30.2618 28.5744 29.2549 27.8995 28.3809 28.1868C27.5069 28.4741 27.0968 29.6148 27.465 30.7346C27.8331 31.8544 28.84 32.5293 29.714 32.242Z" fill="#6B3736"/>
<path d="M42.8844 28.5037C44.0861 28.1087 44.6236 26.46 44.0849 24.8212C43.5462 23.1825 42.1352 22.1743 40.9335 22.5694C39.7318 22.9644 39.1943 24.6131 39.733 26.2519C40.2717 27.8906 41.6826 28.8988 42.8844 28.5037Z" fill="white"/>
<path d="M42.8968 28.553C43.7708 28.2657 44.1809 27.125 43.8127 26.0052C43.4446 24.8854 42.4377 24.2105 41.5637 24.4978C40.6897 24.7852 40.2796 25.9258 40.6477 27.0456C41.0159 28.1654 42.0228 28.8403 42.8968 28.553Z" fill="#6B3736"/>
</svg>
