<svg width="80" height="81" viewBox="0 0 80 81" fill="none" xmlns="http://www.w3.org/2000/svg">
<path d="M25.1722 46.1724C21.6649 46.1724 18.8151 50.1729 18.8151 55.0503C18.8151 56.8588 19.1988 58.5577 19.9112 59.9825C18.3219 60.2566 17.1163 61.4622 17.1163 62.8323C17.1163 64.4763 18.7055 65.7916 20.6784 65.7916C22.2677 65.7916 23.583 64.9696 24.0762 63.7639C24.4598 63.8735 24.7886 63.9283 25.1722 63.9283C28.6796 63.9283 31.5293 59.9277 31.5293 55.0503C31.5293 50.1729 28.6796 46.1724 25.1722 46.1724Z" fill="#A8AA18"/>
<path d="M55.423 46.1724C58.9303 46.1724 61.7801 50.1729 61.7801 55.0503C61.7801 56.8588 61.3964 58.5577 60.684 59.9825C62.2733 60.2566 63.4789 61.4622 63.4789 62.8323C63.4789 64.4763 61.8897 65.7916 59.9168 65.7916C58.3275 65.7916 57.0123 64.9696 56.519 63.7639C56.1354 63.8735 55.8066 63.9283 55.423 63.9283C51.9156 63.9283 49.0659 59.9277 49.0659 55.0503C49.0659 50.1729 51.8608 46.1724 55.423 46.1724Z" fill="#A8AA18"/>
<path d="M60.2458 65.8463C60.1909 65.7915 60.191 65.7367 60.1361 65.6819C59.9169 65.1339 59.6977 64.5859 59.5333 64.0379C58.9305 62.2842 58.6565 60.3661 58.2181 58.5576C57.67 56.0915 57.122 53.6254 56.574 51.1593C55.9712 48.5288 55.3683 45.8983 54.8203 43.2678C54.3819 41.2949 53.9435 39.2672 53.5051 37.2943C53.3955 36.6915 53.2311 36.0887 53.1214 35.4858L29.392 35.5954C26.7067 43.9802 24.0762 52.3102 21.3909 60.6949C20.1852 64.5311 16.8423 69.8469 21.0073 73.0802C23.4186 74.9435 26.9807 74.4503 28.8988 71.9842C29.5016 71.217 29.8304 70.3949 29.9949 69.5181C30.5977 69.6277 31.2005 69.7373 31.8581 69.7921C31.6389 68.4769 31.5841 67.1068 31.5841 65.7367C31.5841 57.2972 35.3107 50.3921 39.9689 50.3921C44.6271 50.3921 48.3536 57.2424 48.3536 65.7367C48.3536 67.1616 48.244 68.5317 48.0796 69.7921C48.7921 69.6825 49.4497 69.5729 50.1073 69.4633L50.1621 69.6277C50.1621 69.6825 50.2169 69.7373 50.2169 69.7921C50.3265 70.8334 50.7101 71.8198 51.4226 72.7514C53.3407 75.2724 56.9028 75.7656 59.3141 73.8475C60.6842 72.8063 61.4514 71.1622 61.4514 69.4085C61.4514 68.5317 61.2322 67.6548 60.8486 66.8876C60.6294 66.4492 60.4102 66.1752 60.2458 65.8463Z" fill="#CFC12A"/>
<path d="M48.2988 65.6276C48.2988 67.0525 48.1892 68.4225 48.0247 69.683C45.5586 70.0118 42.7637 70.231 39.8592 70.231C37.0095 70.231 34.3242 70.0666 31.8581 69.7378C31.6388 68.4225 31.584 67.0524 31.584 65.6824C31.584 57.2428 35.3106 50.3377 39.9688 50.3377C44.5722 50.2829 48.2988 57.188 48.2988 65.6276Z" fill="#FFC04B"/>
<path d="M57.8342 21.621C59.9715 20.0866 61.3415 17.6205 61.3415 14.8256C61.3415 10.2222 57.615 6.49561 53.0116 6.49561C49.1754 6.49561 45.8873 9.12612 44.9556 12.6883C42.4895 11.9758 40.0782 11.8114 37.6121 12.195C36.5161 8.90691 33.3923 6.49561 29.7206 6.49561C25.1172 6.49561 21.3906 10.2222 21.3906 14.8256C21.3906 16.9629 22.2127 18.9357 23.5827 20.4154C20.4042 23.9776 18.5957 28.1425 19.4177 32.8555C20.2398 37.5685 23.2539 42.2267 27.9669 44.8025C31.5291 46.7753 36.1873 47.9262 40.4618 47.7618C45.3392 47.5974 50.3811 46.6109 54.3816 43.9804C58.2178 41.4595 60.7387 37.4041 61.3415 33.2392C61.8348 29.129 60.4099 25.0736 57.8342 21.621Z" fill="#CFC12A"/>
<path d="M58.9851 39.2128C57.7794 41.0761 56.1902 42.7202 54.3269 43.9806C50.3263 46.6111 45.2845 47.5976 40.4071 47.762C36.1873 47.9264 31.5291 46.7208 27.9121 44.8027C23.2539 42.2818 20.185 37.6236 19.363 32.8557C18.5409 27.9783 20.4042 23.8134 23.7472 20.1416C21.7195 23.1557 20.733 26.5535 21.3907 30.3348C22.2127 35.0478 25.2268 39.706 29.9398 42.2818C33.502 44.2546 38.1602 45.4055 42.4348 45.2411C47.3122 45.0767 52.354 44.0902 56.3546 41.4597C57.2862 40.8021 58.163 40.0349 58.9851 39.2128Z" fill="#A8AA18"/>
<path d="M32.6255 24.7993C33.9408 25.5117 35.3109 26.1146 36.7357 26.553C38.1606 26.9914 39.5854 27.2654 41.0103 27.375C41.7227 27.4298 42.4352 27.375 43.1476 27.3202C43.86 27.2654 44.5725 27.1558 45.2849 26.9914C46.7098 26.6626 48.0798 26.1146 49.5047 25.5117C48.4086 26.553 47.0386 27.3202 45.5589 27.8683C44.8465 28.1423 44.0792 28.3067 43.2572 28.4163C42.49 28.5259 41.6679 28.5807 40.9007 28.5259C39.3114 28.4163 37.777 28.0327 36.3521 27.4298C35.6397 27.101 34.982 26.7174 34.3244 26.3338C33.7216 25.8406 33.1188 25.3473 32.6255 24.7993Z" fill="#5B462B"/>
<path d="M31.4197 25.3477C31.6389 25.2381 31.8582 25.1285 32.0226 24.9641C32.187 24.8545 32.4062 24.7449 32.5706 24.5805C32.735 24.4708 32.8994 24.3064 33.1186 24.142C33.2282 24.0872 33.283 23.9776 33.3926 23.9228C33.5022 23.868 33.557 23.7584 33.7214 23.7036C33.7214 23.8132 33.6666 23.9776 33.6666 24.0872C33.6118 24.1968 33.557 24.3612 33.5022 24.4709C33.3926 24.6901 33.1734 24.9093 32.9542 25.0737C32.735 25.2381 32.5158 25.3477 32.2418 25.4025C31.9678 25.4573 31.6938 25.4573 31.4197 25.3477Z" fill="#5B462B"/>
<path d="M50.8744 26.1148C50.6004 26.2244 50.3264 26.2244 50.1072 26.1696C49.8332 26.1148 49.6139 26.0052 49.3947 25.8408C49.1755 25.6764 49.0111 25.4571 48.8467 25.2379C48.7919 25.1283 48.7371 25.0187 48.6823 24.8543C48.6275 24.7447 48.6275 24.5803 48.6275 24.4707C48.7371 24.5255 48.8467 24.6351 48.9563 24.6899C49.0659 24.7447 49.1207 24.8543 49.2303 24.9091C49.3947 25.0735 49.5591 25.1831 49.7784 25.3475C49.9428 25.4571 50.1072 25.6215 50.3264 25.7312C50.436 25.8408 50.6552 25.9504 50.8744 26.1148Z" fill="#5B462B"/>
<path d="M29.6112 69.3538L31.5293 58.5029L30.3784 69.4634L29.6112 69.3538Z" fill="#96960E"/>
<path d="M49.5044 69.4634L48.2988 58.5029L50.2717 69.3538L49.5044 69.4634Z" fill="#96960E"/>
<path d="M29.5563 17.0177C30.888 17.0177 31.9676 15.5455 31.9676 13.7295C31.9676 11.9136 30.888 10.4414 29.5563 10.4414C28.2246 10.4414 27.145 11.9136 27.145 13.7295C27.145 15.5455 28.2246 17.0177 29.5563 17.0177Z" fill="white"/>
<path d="M29.5564 17.0724C30.5249 17.0724 31.3101 16.0664 31.3101 14.8255C31.3101 13.5846 30.5249 12.5786 29.5564 12.5786C28.5879 12.5786 27.8027 13.5846 27.8027 14.8255C27.8027 16.0664 28.5879 17.0724 29.5564 17.0724Z" fill="#6B3736"/>
<path d="M53.8339 17.0177C55.1656 17.0177 56.2452 15.5455 56.2452 13.7295C56.2452 11.9136 55.1656 10.4414 53.8339 10.4414C52.5022 10.4414 51.4226 11.9136 51.4226 13.7295C51.4226 15.5455 52.5022 17.0177 53.8339 17.0177Z" fill="white"/>
<path d="M53.8338 17.0724C54.8023 17.0724 55.5874 16.0664 55.5874 14.8255C55.5874 13.5846 54.8023 12.5786 53.8338 12.5786C52.8652 12.5786 52.0801 13.5846 52.0801 14.8255C52.0801 16.0664 52.8652 17.0724 53.8338 17.0724Z" fill="#6B3736"/>
</svg>
